<mxfile host="app.diagrams.net" agent="Mozilla/5.0 (X11; Ubuntu; Linux x86_64; rv:131.0) Gecko/20100101 Firefox/131.0" version="25.0.3">
  <diagram name="Page-1" id="7IZlaRfim9HSo66foFJ8">
    <mxGraphModel dx="1656" dy="902" grid="1" gridSize="10" guides="1" tooltips="1" connect="1" arrows="1" fold="1" page="1" pageScale="1" pageWidth="850" pageHeight="1100" math="0" shadow="0">
      <root>
        <mxCell id="0" />
        <mxCell id="1" parent="0" />
        <mxCell id="h_FR4b3SNnd64EsKBZ6_-36" value="" style="rounded=0;whiteSpace=wrap;html=1;" vertex="1" parent="1">
          <mxGeometry x="722.5" y="600" width="160" height="190" as="geometry" />
        </mxCell>
        <mxCell id="h_FR4b3SNnd64EsKBZ6_-1" value="" style="rounded=0;whiteSpace=wrap;html=1;" vertex="1" parent="1">
          <mxGeometry x="200" y="600" width="160" height="190" as="geometry" />
        </mxCell>
        <mxCell id="h_FR4b3SNnd64EsKBZ6_-18" value="" style="rounded=0;whiteSpace=wrap;html=1;" vertex="1" parent="1">
          <mxGeometry x="440" y="600" width="160" height="190" as="geometry" />
        </mxCell>
        <mxCell id="h_FR4b3SNnd64EsKBZ6_-32" style="edgeStyle=orthogonalEdgeStyle;rounded=0;orthogonalLoop=1;jettySize=auto;html=1;exitX=0.11;exitY=1;exitDx=0;exitDy=0;exitPerimeter=0;entryX=0;entryY=0.25;entryDx=0;entryDy=0;endArrow=none;endFill=0;" edge="1" parent="1" source="h_FR4b3SNnd64EsKBZ6_-2" target="h_FR4b3SNnd64EsKBZ6_-11">
          <mxGeometry relative="1" as="geometry">
            <Array as="points">
              <mxPoint x="160" y="520" />
              <mxPoint x="160" y="650" />
              <mxPoint x="210" y="650" />
            </Array>
          </mxGeometry>
        </mxCell>
        <mxCell id="h_FR4b3SNnd64EsKBZ6_-35" style="edgeStyle=orthogonalEdgeStyle;rounded=0;orthogonalLoop=1;jettySize=auto;html=1;exitX=0.25;exitY=1;exitDx=0;exitDy=0;exitPerimeter=0;entryX=0;entryY=0.5;entryDx=0;entryDy=0;endArrow=none;endFill=0;" edge="1" parent="1" source="h_FR4b3SNnd64EsKBZ6_-2" target="h_FR4b3SNnd64EsKBZ6_-26">
          <mxGeometry relative="1" as="geometry">
            <Array as="points">
              <mxPoint x="420" y="520" />
              <mxPoint x="420" y="650" />
            </Array>
          </mxGeometry>
        </mxCell>
        <mxCell id="h_FR4b3SNnd64EsKBZ6_-48" style="edgeStyle=orthogonalEdgeStyle;rounded=0;orthogonalLoop=1;jettySize=auto;html=1;exitX=0.67;exitY=1;exitDx=0;exitDy=0;exitPerimeter=0;entryX=0;entryY=0.5;entryDx=0;entryDy=0;" edge="1" parent="1" source="h_FR4b3SNnd64EsKBZ6_-2" target="h_FR4b3SNnd64EsKBZ6_-44">
          <mxGeometry relative="1" as="geometry">
            <Array as="points">
              <mxPoint x="700" y="520" />
              <mxPoint x="700" y="650" />
            </Array>
          </mxGeometry>
        </mxCell>
        <mxCell id="h_FR4b3SNnd64EsKBZ6_-2" value="&lt;font style=&quot;font-size: 50px;&quot;&gt;Combinational Logic&lt;/font&gt;" style="rounded=0;whiteSpace=wrap;html=1;points=[[0,0,0,0,0],[0,0.25,0,0,0],[0,0.5,0,0,0],[0,0.75,0,0,0],[0,1,0,0,0],[0.11,1,0,0,0],[0.22,1,0,0,0],[0.25,0,0,0,0],[0.25,1,0,0,0],[0.33,1,0,0,0],[0.44,1,0,0,0],[0.5,0,0,0,0],[0.5,1,0,0,0],[0.56,1,0,0,0],[0.67,1,0,0,0],[0.75,0,0,0,0],[0.75,1,0,0,0],[0.78,1,0,0,0],[0.89,1,0,0,0],[1,0,0,0,0],[1,0.25,0,0,0],[1,0.5,0,0,0],[1,0.75,0,0,0],[1,1,0,0,0]];" vertex="1" parent="1">
          <mxGeometry x="80" y="460" width="880" height="120" as="geometry" />
        </mxCell>
        <mxCell id="h_FR4b3SNnd64EsKBZ6_-7" style="edgeStyle=orthogonalEdgeStyle;rounded=0;orthogonalLoop=1;jettySize=auto;html=1;entryX=0;entryY=0.5;entryDx=0;entryDy=0;endArrow=none;endFill=0;" edge="1" parent="1" source="h_FR4b3SNnd64EsKBZ6_-3" target="h_FR4b3SNnd64EsKBZ6_-6">
          <mxGeometry relative="1" as="geometry" />
        </mxCell>
        <mxCell id="h_FR4b3SNnd64EsKBZ6_-3" value="" style="shape=trapezoid;perimeter=trapezoidPerimeter;whiteSpace=wrap;html=1;fixedSize=1;rotation=90;" vertex="1" parent="1">
          <mxGeometry x="177.5" y="652.5" width="90" height="25" as="geometry" />
        </mxCell>
        <mxCell id="h_FR4b3SNnd64EsKBZ6_-4" value="" style="rounded=0;whiteSpace=wrap;html=1;" vertex="1" parent="1">
          <mxGeometry x="260" y="640" width="90" height="110" as="geometry" />
        </mxCell>
        <mxCell id="h_FR4b3SNnd64EsKBZ6_-27" style="edgeStyle=orthogonalEdgeStyle;rounded=0;orthogonalLoop=1;jettySize=auto;html=1;entryX=0;entryY=0.5;entryDx=0;entryDy=0;endArrow=none;endFill=0;" edge="1" parent="1" source="h_FR4b3SNnd64EsKBZ6_-5" target="h_FR4b3SNnd64EsKBZ6_-25">
          <mxGeometry relative="1" as="geometry">
            <Array as="points">
              <mxPoint x="400" y="660" />
              <mxPoint x="400" y="680" />
            </Array>
          </mxGeometry>
        </mxCell>
        <mxCell id="h_FR4b3SNnd64EsKBZ6_-5" value="&lt;font style=&quot;font-size: 18px;&quot;&gt;Q&lt;/font&gt;" style="text;html=1;align=center;verticalAlign=middle;whiteSpace=wrap;rounded=0;" vertex="1" parent="1">
          <mxGeometry x="320" y="650" width="30" height="30" as="geometry" />
        </mxCell>
        <mxCell id="h_FR4b3SNnd64EsKBZ6_-6" value="&lt;font style=&quot;font-size: 18px;&quot;&gt;D&lt;/font&gt;" style="text;html=1;align=center;verticalAlign=middle;whiteSpace=wrap;rounded=0;" vertex="1" parent="1">
          <mxGeometry x="260" y="650" width="30" height="30" as="geometry" />
        </mxCell>
        <mxCell id="h_FR4b3SNnd64EsKBZ6_-9" value="" style="triangle;whiteSpace=wrap;html=1;" vertex="1" parent="1">
          <mxGeometry x="260" y="710" width="20" height="30" as="geometry" />
        </mxCell>
        <mxCell id="h_FR4b3SNnd64EsKBZ6_-10" value="1" style="text;html=1;align=center;verticalAlign=middle;whiteSpace=wrap;rounded=0;" vertex="1" parent="1">
          <mxGeometry x="210" y="670" width="20" height="20" as="geometry" />
        </mxCell>
        <mxCell id="h_FR4b3SNnd64EsKBZ6_-11" value="0" style="text;html=1;align=center;verticalAlign=middle;whiteSpace=wrap;rounded=0;" vertex="1" parent="1">
          <mxGeometry x="210" y="640" width="20" height="20" as="geometry" />
        </mxCell>
        <mxCell id="h_FR4b3SNnd64EsKBZ6_-14" style="edgeStyle=orthogonalEdgeStyle;rounded=0;orthogonalLoop=1;jettySize=auto;html=1;entryX=1;entryY=0.5;entryDx=0;entryDy=0;endArrow=none;endFill=0;" edge="1" parent="1" source="h_FR4b3SNnd64EsKBZ6_-13" target="h_FR4b3SNnd64EsKBZ6_-3">
          <mxGeometry relative="1" as="geometry" />
        </mxCell>
        <mxCell id="h_FR4b3SNnd64EsKBZ6_-31" style="edgeStyle=orthogonalEdgeStyle;rounded=0;orthogonalLoop=1;jettySize=auto;html=1;entryX=1;entryY=0.5;entryDx=0;entryDy=0;endArrow=none;endFill=0;jumpStyle=arc;" edge="1" parent="1" source="h_FR4b3SNnd64EsKBZ6_-13" target="h_FR4b3SNnd64EsKBZ6_-20">
          <mxGeometry relative="1" as="geometry" />
        </mxCell>
        <mxCell id="h_FR4b3SNnd64EsKBZ6_-46" style="edgeStyle=orthogonalEdgeStyle;rounded=0;orthogonalLoop=1;jettySize=auto;html=1;entryX=1;entryY=0.5;entryDx=0;entryDy=0;endArrow=none;endFill=0;" edge="1" parent="1" source="h_FR4b3SNnd64EsKBZ6_-13" target="h_FR4b3SNnd64EsKBZ6_-38">
          <mxGeometry relative="1" as="geometry" />
        </mxCell>
        <mxCell id="h_FR4b3SNnd64EsKBZ6_-13" value="&lt;font style=&quot;font-size: 25px;&quot;&gt;SE&lt;/font&gt;" style="text;html=1;align=center;verticalAlign=middle;whiteSpace=wrap;rounded=0;" vertex="1" parent="1">
          <mxGeometry x="80" y="800" width="40" height="30" as="geometry" />
        </mxCell>
        <mxCell id="h_FR4b3SNnd64EsKBZ6_-17" style="edgeStyle=orthogonalEdgeStyle;rounded=0;orthogonalLoop=1;jettySize=auto;html=1;entryX=0;entryY=0.5;entryDx=0;entryDy=0;endArrow=none;endFill=0;jumpStyle=arc;" edge="1" parent="1" source="h_FR4b3SNnd64EsKBZ6_-16" target="h_FR4b3SNnd64EsKBZ6_-9">
          <mxGeometry relative="1" as="geometry">
            <Array as="points">
              <mxPoint x="240" y="855" />
              <mxPoint x="240" y="725" />
            </Array>
          </mxGeometry>
        </mxCell>
        <mxCell id="h_FR4b3SNnd64EsKBZ6_-30" style="edgeStyle=orthogonalEdgeStyle;rounded=0;orthogonalLoop=1;jettySize=auto;html=1;entryX=0;entryY=0.5;entryDx=0;entryDy=0;endArrow=none;endFill=0;jumpStyle=arc;" edge="1" parent="1" source="h_FR4b3SNnd64EsKBZ6_-16" target="h_FR4b3SNnd64EsKBZ6_-24">
          <mxGeometry relative="1" as="geometry">
            <Array as="points">
              <mxPoint x="480" y="855" />
              <mxPoint x="480" y="725" />
            </Array>
          </mxGeometry>
        </mxCell>
        <mxCell id="h_FR4b3SNnd64EsKBZ6_-51" style="edgeStyle=orthogonalEdgeStyle;rounded=0;orthogonalLoop=1;jettySize=auto;html=1;entryX=0;entryY=0.75;entryDx=0;entryDy=0;endArrow=none;endFill=0;" edge="1" parent="1" source="h_FR4b3SNnd64EsKBZ6_-16" target="h_FR4b3SNnd64EsKBZ6_-39">
          <mxGeometry relative="1" as="geometry">
            <Array as="points">
              <mxPoint x="760" y="855" />
              <mxPoint x="760" y="723" />
            </Array>
          </mxGeometry>
        </mxCell>
        <mxCell id="h_FR4b3SNnd64EsKBZ6_-16" value="&lt;font style=&quot;font-size: 25px;&quot;&gt;CLK&lt;/font&gt;" style="text;html=1;align=center;verticalAlign=middle;whiteSpace=wrap;rounded=0;" vertex="1" parent="1">
          <mxGeometry x="80" y="840" width="50" height="30" as="geometry" />
        </mxCell>
        <mxCell id="h_FR4b3SNnd64EsKBZ6_-19" style="edgeStyle=orthogonalEdgeStyle;rounded=0;orthogonalLoop=1;jettySize=auto;html=1;entryX=0;entryY=0.5;entryDx=0;entryDy=0;endArrow=none;endFill=0;" edge="1" parent="1" source="h_FR4b3SNnd64EsKBZ6_-20" target="h_FR4b3SNnd64EsKBZ6_-23">
          <mxGeometry relative="1" as="geometry" />
        </mxCell>
        <mxCell id="h_FR4b3SNnd64EsKBZ6_-20" value="" style="shape=trapezoid;perimeter=trapezoidPerimeter;whiteSpace=wrap;html=1;fixedSize=1;rotation=90;" vertex="1" parent="1">
          <mxGeometry x="417.5" y="652.5" width="90" height="25" as="geometry" />
        </mxCell>
        <mxCell id="h_FR4b3SNnd64EsKBZ6_-21" value="" style="rounded=0;whiteSpace=wrap;html=1;" vertex="1" parent="1">
          <mxGeometry x="500" y="640" width="90" height="110" as="geometry" />
        </mxCell>
        <mxCell id="h_FR4b3SNnd64EsKBZ6_-49" style="edgeStyle=orthogonalEdgeStyle;rounded=0;orthogonalLoop=1;jettySize=auto;html=1;entryX=0;entryY=0.5;entryDx=0;entryDy=0;endArrow=none;endFill=0;dashed=1;" edge="1" parent="1" source="h_FR4b3SNnd64EsKBZ6_-22" target="h_FR4b3SNnd64EsKBZ6_-47">
          <mxGeometry relative="1" as="geometry">
            <Array as="points">
              <mxPoint x="640" y="665" />
            </Array>
          </mxGeometry>
        </mxCell>
        <mxCell id="h_FR4b3SNnd64EsKBZ6_-22" value="&lt;font style=&quot;font-size: 18px;&quot;&gt;Q&lt;/font&gt;" style="text;html=1;align=center;verticalAlign=middle;whiteSpace=wrap;rounded=0;" vertex="1" parent="1">
          <mxGeometry x="560" y="650" width="30" height="30" as="geometry" />
        </mxCell>
        <mxCell id="h_FR4b3SNnd64EsKBZ6_-23" value="&lt;font style=&quot;font-size: 18px;&quot;&gt;D&lt;/font&gt;" style="text;html=1;align=center;verticalAlign=middle;whiteSpace=wrap;rounded=0;" vertex="1" parent="1">
          <mxGeometry x="500" y="650" width="30" height="30" as="geometry" />
        </mxCell>
        <mxCell id="h_FR4b3SNnd64EsKBZ6_-24" value="" style="triangle;whiteSpace=wrap;html=1;" vertex="1" parent="1">
          <mxGeometry x="500" y="710" width="20" height="30" as="geometry" />
        </mxCell>
        <mxCell id="h_FR4b3SNnd64EsKBZ6_-25" value="1" style="text;html=1;align=center;verticalAlign=middle;whiteSpace=wrap;rounded=0;" vertex="1" parent="1">
          <mxGeometry x="450" y="670" width="20" height="20" as="geometry" />
        </mxCell>
        <mxCell id="h_FR4b3SNnd64EsKBZ6_-26" value="0" style="text;html=1;align=center;verticalAlign=middle;whiteSpace=wrap;rounded=0;" vertex="1" parent="1">
          <mxGeometry x="450" y="640" width="20" height="20" as="geometry" />
        </mxCell>
        <mxCell id="h_FR4b3SNnd64EsKBZ6_-34" style="edgeStyle=orthogonalEdgeStyle;rounded=0;orthogonalLoop=1;jettySize=auto;html=1;endArrow=none;endFill=0;" edge="1" parent="1" source="h_FR4b3SNnd64EsKBZ6_-33" target="h_FR4b3SNnd64EsKBZ6_-10">
          <mxGeometry relative="1" as="geometry" />
        </mxCell>
        <mxCell id="h_FR4b3SNnd64EsKBZ6_-33" value="&lt;font style=&quot;font-size: 25px;&quot;&gt;SI&lt;/font&gt;" style="text;html=1;align=center;verticalAlign=middle;whiteSpace=wrap;rounded=0;" vertex="1" parent="1">
          <mxGeometry x="80" y="665" width="30" height="30" as="geometry" />
        </mxCell>
        <mxCell id="h_FR4b3SNnd64EsKBZ6_-37" style="edgeStyle=orthogonalEdgeStyle;rounded=0;orthogonalLoop=1;jettySize=auto;html=1;entryX=0;entryY=0.5;entryDx=0;entryDy=0;endArrow=none;endFill=0;" edge="1" source="h_FR4b3SNnd64EsKBZ6_-38" target="h_FR4b3SNnd64EsKBZ6_-41" parent="1">
          <mxGeometry relative="1" as="geometry" />
        </mxCell>
        <mxCell id="h_FR4b3SNnd64EsKBZ6_-38" value="" style="shape=trapezoid;perimeter=trapezoidPerimeter;whiteSpace=wrap;html=1;fixedSize=1;rotation=90;" vertex="1" parent="1">
          <mxGeometry x="700" y="652.5" width="90" height="25" as="geometry" />
        </mxCell>
        <mxCell id="h_FR4b3SNnd64EsKBZ6_-39" value="" style="rounded=0;whiteSpace=wrap;html=1;" vertex="1" parent="1">
          <mxGeometry x="782.5" y="640" width="90" height="110" as="geometry" />
        </mxCell>
        <mxCell id="h_FR4b3SNnd64EsKBZ6_-55" style="edgeStyle=orthogonalEdgeStyle;rounded=0;orthogonalLoop=1;jettySize=auto;html=1;endArrow=none;endFill=0;entryX=0;entryY=0.5;entryDx=0;entryDy=0;" edge="1" parent="1" source="h_FR4b3SNnd64EsKBZ6_-40" target="h_FR4b3SNnd64EsKBZ6_-53">
          <mxGeometry relative="1" as="geometry">
            <mxPoint x="920" y="665" as="targetPoint" />
          </mxGeometry>
        </mxCell>
        <mxCell id="h_FR4b3SNnd64EsKBZ6_-40" value="&lt;font style=&quot;font-size: 18px;&quot;&gt;Q&lt;/font&gt;" style="text;html=1;align=center;verticalAlign=middle;whiteSpace=wrap;rounded=0;" vertex="1" parent="1">
          <mxGeometry x="842.5" y="650" width="30" height="30" as="geometry" />
        </mxCell>
        <mxCell id="h_FR4b3SNnd64EsKBZ6_-41" value="&lt;font style=&quot;font-size: 18px;&quot;&gt;D&lt;/font&gt;" style="text;html=1;align=center;verticalAlign=middle;whiteSpace=wrap;rounded=0;" vertex="1" parent="1">
          <mxGeometry x="782.5" y="650" width="30" height="30" as="geometry" />
        </mxCell>
        <mxCell id="h_FR4b3SNnd64EsKBZ6_-42" value="" style="triangle;whiteSpace=wrap;html=1;" vertex="1" parent="1">
          <mxGeometry x="782.5" y="710" width="20" height="30" as="geometry" />
        </mxCell>
        <mxCell id="h_FR4b3SNnd64EsKBZ6_-43" value="1" style="text;html=1;align=center;verticalAlign=middle;whiteSpace=wrap;rounded=0;" vertex="1" parent="1">
          <mxGeometry x="732.5" y="670" width="20" height="20" as="geometry" />
        </mxCell>
        <mxCell id="h_FR4b3SNnd64EsKBZ6_-44" value="0" style="text;html=1;align=center;verticalAlign=middle;whiteSpace=wrap;rounded=0;" vertex="1" parent="1">
          <mxGeometry x="732.5" y="640" width="20" height="20" as="geometry" />
        </mxCell>
        <mxCell id="h_FR4b3SNnd64EsKBZ6_-50" style="edgeStyle=orthogonalEdgeStyle;rounded=0;orthogonalLoop=1;jettySize=auto;html=1;endArrow=none;endFill=0;" edge="1" parent="1" source="h_FR4b3SNnd64EsKBZ6_-47" target="h_FR4b3SNnd64EsKBZ6_-43">
          <mxGeometry relative="1" as="geometry" />
        </mxCell>
        <mxCell id="h_FR4b3SNnd64EsKBZ6_-47" value="..." style="text;html=1;align=center;verticalAlign=middle;whiteSpace=wrap;rounded=0;fontSize=55;" vertex="1" parent="1">
          <mxGeometry x="640" y="657.5" width="40" height="15" as="geometry" />
        </mxCell>
        <mxCell id="h_FR4b3SNnd64EsKBZ6_-53" value="&lt;font style=&quot;font-size: 25px;&quot;&gt;SO&lt;/font&gt;" style="text;html=1;align=center;verticalAlign=middle;whiteSpace=wrap;rounded=0;" vertex="1" parent="1">
          <mxGeometry x="920" y="650" width="40" height="30" as="geometry" />
        </mxCell>
      </root>
    </mxGraphModel>
  </diagram>
</mxfile>
